<?xml version="1.0" encoding="utf-8"?>
<!-- Generator: Adobe Illustrator 27.5.0, SVG Export Plug-In . SVG Version: 6.00 Build 0)  -->
<svg version="1.1" id="Capa_1" xmlns="http://www.w3.org/2000/svg" xmlns:xlink="http://www.w3.org/1999/xlink" x="0px" y="0px"
	 viewBox="0 0 2122 2122" style="enable-background:new 0 0 2122 2122;" xml:space="preserve">
<g>
	<path style="fill:#DFD6EB;" d="M472.299,1499.021L472.299,1499.021L456.986,1483c-2.33-2.437-4.581-4.921-6.761-7.446
		c-0.726-0.84-1.398-1.71-2.107-2.559c-1.424-1.705-2.857-3.406-4.216-5.147c-0.804-1.031-1.549-2.091-2.33-3.134
		c-1.191-1.593-2.4-3.177-3.537-4.796c-0.805-1.146-1.552-2.318-2.33-3.477c-1.044-1.555-2.104-3.102-3.099-4.68
		c-0.766-1.215-1.478-2.453-2.216-3.682c-0.932-1.553-1.879-3.099-2.765-4.671c-0.716-1.27-1.38-2.56-2.066-3.843
		c-0.836-1.562-1.682-3.118-2.473-4.696c-0.661-1.321-1.273-2.659-1.902-3.99c-0.741-1.566-1.491-3.128-2.188-4.708
		c-0.602-1.363-1.157-2.74-1.725-4.113c-0.325-0.784-0.671-1.56-0.985-2.347c-0.647,0.584-1.336,1.094-1.971,1.701l-199.027,190.233
		l254.38,266.146l-3.671,3.509l202.707-193.748c1.015-0.969,1.901-2.02,2.859-3.026c-23.895-10.227-46.134-25.297-65.15-45.194
		L472.299,1499.021z"/>
	<path style="fill:#5CACB2;" d="M1940.959,618.974c-3.214-4.396-6.69-8.727-10.377-13.016
		c-18.347-21.428-41.696-41.369-61.476-57.961c-4.446-3.747-8.718-7.3-12.714-10.672c-5.754-4.864-10.937-9.329-15.235-13.326
		c-12.72-11.816-25.458-23.637-38.177-35.454c-4.04-3.747-8.056-7.495-12.095-11.242c-16.272-15.105-32.534-30.206-48.798-45.324
		l-0.015-0.009c-4.039-3.747-8.063-7.485-12.102-11.232c-17.941-16.656-35.866-33.304-53.797-49.97l-12.117-11.242l-0.668-0.625
		c-18.861-17.509-38.145-37.677-58.177-57.627c-3.882-3.896-7.8-7.758-11.757-11.608c-16.342-15.874-33.192-31.252-50.771-44.634
		c-21.966,12.747-43.429,26.592-64.51,40.141c-20.094,12.928-39.882,26.273-59.373,40.043c-0.001,0.001-0.001,0.001-0.002,0.002l0,0
		l438.556,458.831c4.872-4.155,9.723-8.31,14.594-12.469c1.877-1.607,3.766-3.205,5.642-4.813
		c24.05-20.515,60.782-35.843,75.799-65.163C1970.293,674.84,1960.751,646.081,1940.959,618.974z"/>
	<path style="fill:#7ECAD5;" d="M472.299,1499.021l134.116,140.314c19.016,19.897,41.255,34.967,65.15,45.194
		c71.228,30.482,157.186,17.859,216.485-38.829c2.538-2.427,5.253-4.697,7.871-7.041c3.436-3.071,6.878-6.156,10.311-9.232
		l-370.148-387.259C494.298,1321.036,468.284,1410.887,472.299,1499.021z"/>
	<path style="fill:#7ECAD5;" d="M1092.9,606.56c-67.387,67.225-132.592,136.584-197.689,206.027
		c-45.496,48.525-91.006,97.059-136.5,145.612c-47.138,50.28-94.588,100.985-137.168,155.095l397.107,415.466
		c11.695-10.469,23.396-20.937,35.078-31.419c127.439-114.105,254.88-228.238,382.321-342.342
		c120.816-108.19,241.522-215.726,364.08-321.683l-442.515-462.973C1263.853,442.453,1176.572,523.078,1092.9,606.56z"/>
	<path style="fill:#C2B6D3;" d="M215.289,1611.646l-0.002-0.002l-12.872,12.307c-29.294,27.997-35.293,71.508-17.544,105.875
		c3.81,7.377,8.659,14.355,14.669,20.643l130.724,136.77c3.327,3.481,6.928,6.535,10.654,9.358
		c34.35,26.037,83.78,24.182,115.88-6.498l9.201-8.798l3.671-3.509L215.289,1611.646z"/>
	<path style="fill:#EDE7F4;" d="M416.373,1890.352c10.451-2.065,6.027-18.036-4.404-15.975c-34.377,6.787-65.754-23.581-89.34-44.39
		c-20.341-17.948-39.021-37.49-56.502-58.212c-6.884-8.156-18.553,3.61-11.717,11.717c24.165,28.633,50.767,54.928,80.316,78.012
		C359.024,1880.481,384.582,1896.627,416.373,1890.352z"/>
	<path style="fill:#ED6885;" d="M621.542,1113.294c-30.608,38.896-58.697,79.551-82.353,123.079
		c-1.045,1.925-2.08,3.855-3.107,5.793v0.001l370.148,387.259c26.884-24.068,53.759-48.127,80.633-72.208
		c10.593-9.486,21.187-18.973,31.786-28.459L621.542,1113.294L621.542,1113.294z"/>
	<path style="fill:#43959B;" d="M1357.614,370.342C1357.614,370.342,1357.614,370.342,1357.614,370.342l442.514,462.974
		c14.915-12.905,29.854-25.782,44.823-38.627c4.123-3.553,8.269-7.1,12.405-10.64l-438.556-458.831
		C1398.082,339.818,1377.692,354.886,1357.614,370.342z"/>
	<path style="fill:#38A5A8;" d="M1418.803,325.216c19.491-13.771,39.279-27.115,59.373-40.043
		c21.081-13.549,42.544-27.394,64.51-40.141c-3.776-2.895-7.606-5.702-11.46-8.389c-4.622-3.233-9.291-6.291-14.016-9.176
		c-0.658-0.422-1.339-0.829-1.997-1.228c-4.994-2.997-10.042-5.785-15.151-8.324c-2.749-1.373-5.474-2.568-8.186-3.681
		c-0.607-0.249-1.213-0.499-1.818-0.735c-2.656-1.038-5.297-1.978-7.918-2.775c-0.357-0.109-0.711-0.193-1.067-0.297
		c-2.393-0.699-4.77-1.293-7.131-1.798c-0.519-0.111-1.039-0.235-1.557-0.336c-2.562-0.504-5.106-0.896-7.632-1.179
		c-0.509-0.057-1.015-0.092-1.522-0.141c-2.292-0.217-4.571-0.352-6.833-0.393c-0.367-0.007-0.737-0.032-1.104-0.034
		c-0.168-0.001-0.338-0.016-0.508-0.016c-2.331,0.001-4.639,0.122-6.938,0.303c-0.618,0.049-1.23,0.119-1.845,0.181
		c-2.042,0.204-4.07,0.475-6.084,0.817c-0.512,0.087-1.029,0.155-1.54,0.251c-2.391,0.449-4.761,0.995-7.113,1.631
		c-0.571,0.154-1.136,0.333-1.704,0.498c-1.932,0.56-3.852,1.181-5.755,1.863c-0.564,0.202-1.13,0.391-1.692,0.603
		c-2.293,0.868-4.567,1.815-6.821,2.851c-0.492,0.226-0.977,0.476-1.467,0.71c-1.872,0.895-3.73,1.846-5.572,2.852
		c-0.58,0.316-1.162,0.626-1.738,0.953c-2.203,1.249-4.389,2.562-6.548,3.962c-0.381,0.247-0.755,0.514-1.134,0.765
		c-1.86,1.233-3.704,2.524-5.534,3.864c-0.562,0.413-1.125,0.823-1.684,1.245c-2.123,1.602-4.23,3.255-6.309,4.994
		c-0.217,0.181-0.429,0.376-0.646,0.559c-1.904,1.608-3.783,3.281-5.65,4.997c-0.533,0.491-1.067,0.985-1.598,1.485
		c-2.04,1.921-4.065,3.882-6.058,5.924c-0.524,0.505-1.029,1.033-1.534,1.561c-3.923,4.094-7.823,8.189-11.728,12.307l60.705,63.511
		C1418.802,325.217,1418.802,325.217,1418.803,325.216z"/>
	<path style="fill:#56BFC7;" d="M418.997,1426.172c0.696,1.58,1.447,3.143,2.188,4.708c0.63,1.332,1.241,2.67,1.902,3.99
		c0.791,1.578,1.637,3.135,2.473,4.696c0.686,1.282,1.35,2.573,2.066,3.843c0.886,1.573,1.833,3.118,2.765,4.671
		c0.738,1.228,1.449,2.467,2.216,3.682c0.995,1.578,2.055,3.125,3.099,4.68c0.778,1.158,1.525,2.331,2.33,3.477
		c1.137,1.619,2.346,3.203,3.537,4.796c0.781,1.043,1.526,2.103,2.33,3.134c1.359,1.741,2.792,3.441,4.216,5.147
		c0.709,0.849,1.382,1.719,2.107,2.559c2.18,2.525,4.431,5.009,6.761,7.446l15.313,16.021v0
		c-4.015-88.133,21.999-177.985,63.783-256.853v-0.001l-55.872-58.454c-5.622,5.883-11.241,11.756-16.869,17.639
		c-2.516,2.404-4.95,4.862-7.312,7.366c-0.772,0.819-1.488,1.671-2.245,2.5c-1.555,1.706-3.118,3.406-4.602,5.153
		c-0.874,1.027-1.686,2.088-2.535,3.129c-1.297,1.591-2.611,3.173-3.853,4.796c-0.872,1.142-1.686,2.313-2.53,3.469
		c-1.141,1.562-2.299,3.115-3.389,4.702c-0.841,1.225-1.624,2.478-2.434,3.718c-1.019,1.559-2.055,3.11-3.025,4.692
		c-0.787,1.28-1.518,2.584-2.272,3.879c-0.92,1.578-1.853,3.15-2.726,4.747c-0.724,1.326-1.397,2.673-2.089,4.013
		c-0.826,1.597-1.661,3.19-2.441,4.805c-0.664,1.373-1.277,2.763-1.907,4.147c-0.731,1.61-1.47,3.215-2.156,4.839
		c-0.599,1.415-1.152,2.845-1.716,4.272c-0.642,1.621-1.287,3.241-1.885,4.876c-0.528,1.447-1.015,2.905-1.509,4.362
		c-0.557,1.639-1.115,3.278-1.627,4.929c-0.457,1.472-0.874,2.952-1.298,4.433c-0.471,1.655-0.941,3.31-1.371,4.975
		c-0.385,1.494-0.733,2.994-1.084,4.495c-0.39,1.667-0.772,3.336-1.118,5.011c-0.313,1.515-0.595,3.034-0.871,4.555
		c-0.306,1.675-0.603,3.351-0.866,5.031c-0.238,1.528-0.448,3.057-0.653,4.589c-0.224,1.69-0.436,3.381-0.618,5.075
		c-0.165,1.533-0.303,3.067-0.433,4.603c-0.142,1.695-0.269,3.392-0.368,5.089c-0.09,1.543-0.16,3.086-0.215,4.631
		c-0.061,1.697-0.101,3.394-0.119,5.093c-0.007,0.773-0.055,1.545-0.053,2.317c0.001,0.823,0.048,1.645,0.059,2.467
		c0.019,1.498,0.055,2.995,0.109,4.493c0.058,1.646,0.141,3.29,0.24,4.935c0.09,1.496,0.191,2.991,0.314,4.485
		c0.137,1.644,0.299,3.284,0.475,4.924c0.159,1.488,0.327,2.976,0.521,4.462c0.214,1.643,0.458,3.282,0.713,4.921
		c0.229,1.474,0.461,2.947,0.723,4.416c0.292,1.64,0.619,3.274,0.952,4.907c0.297,1.459,0.596,2.918,0.926,4.371
		c0.371,1.632,0.779,3.256,1.192,4.88c0.367,1.442,0.729,2.885,1.129,4.32c0.451,1.62,0.943,3.229,1.435,4.84
		c0.434,1.424,0.862,2.849,1.33,4.265c0.53,1.604,1.104,3.195,1.676,4.787c0.503,1.402,0.996,2.808,1.531,4.201
		c0.308,0.8,0.623,1.597,0.94,2.394c0.314,0.787,0.66,1.563,0.985,2.347C417.84,1423.432,418.395,1424.809,418.997,1426.172z"/>
	<path style="fill:#56BFC7;" d="M621.542,1113.294c42.58-54.11,90.03-104.815,137.168-155.095
		c45.495-48.553,91.005-97.087,136.5-145.612c65.097-69.443,130.302-138.802,197.689-206.027
		c83.672-83.482,170.953-164.107,264.713-236.218c0.001,0,0.001,0,0.001,0c0,0,0,0-0.001,0l-51.021-53.38
		c-28.334,30.706-56.552,61.48-85.405,91.668C1112.433,522.392,1003.663,636.159,894.9,749.925
		c-92.603,96.874-185.192,193.738-277.8,290.598c-10.868,11.344-21.71,22.697-32.563,34.055L621.542,1113.294L621.542,1113.294z"/>
	<path style="fill:#C9637F;" d="M539.189,1236.374c23.655-43.528,51.745-84.183,82.353-123.079l-37.005-38.716
		c-9.829,10.283-19.667,20.566-29.502,30.849c-24.934,26.087-49.872,52.189-74.826,78.285l55.872,58.454
		C537.109,1240.229,538.144,1238.298,539.189,1236.374z"/>
	<path style="fill:#249093;" d="M1357.614,370.342c20.078-15.456,40.468-30.524,61.187-45.123l0,0l-60.705-63.511
		c-3.729,3.956-7.477,7.93-11.2,11.9c-13.516,14.387-26.922,28.871-40.303,43.356L1357.614,370.342
		C1357.614,370.342,1357.614,370.342,1357.614,370.342z"/>
	<path style="fill:#FFFFFF;" d="M1022.004,802.649c-54.563,52.153-99.747,107.703-133.773,162.024
		c-75.878,121.179-96.238,236.234-41.32,293.695c79.537,83.216,286.894,14.119,463.147-154.348
		c75.844-72.487,133.564-151.561,168.38-224.774c46.095-96.898,52.034-183.505,6.719-230.916
		C1405.604,565.099,1198.248,634.194,1022.004,802.649z"/>
	<path style="fill:#BFE3EF;" d="M1215.305,877.341c-84.76,12.287-167.663,37.327-245.042,74.002
		c-15.128,7.169-29.944,14.823-44.516,22.909c-70.885,108.521-92.916,209.671-46.899,257.817
		c66.646,69.725,250.806,1.871,411.347-151.576c69.081-66.027,122.523-137.14,155.693-202.299
		c-27.415-5.905-55.776-8.292-83.864-9.172C1312.996,867.455,1263.836,870.305,1215.305,877.341z"/>
	<path style="fill:#BFE3EF;" d="M1493.921,1061.935c71.976-79.581,148.784-154.485,230.139-224.445
		c8.098-6.962-3.664-18.636-11.712-11.715c-81.359,69.961-158.163,144.867-230.143,224.445
		C1475.071,1058.11,1486.749,1069.861,1493.921,1061.935z"/>
	<path style="fill:#BFE3EF;" d="M1686.992,794.395c7.381,7.722,19.084-4.003,11.713-11.715
		c-22.879-23.934-45.759-47.871-68.633-71.807c-7.381-7.725-19.089,4.002-11.718,11.712L1686.992,794.395z"/>
	<path style="fill:#BFE3EF;" d="M1360.582,1153.608c-106.436,97.496-212.877,194.996-319.313,292.491
		c-7.878,7.221,3.864,18.909,11.718,11.718c106.435-97.501,212.871-194.996,319.313-292.497
		C1380.177,1158.105,1368.435,1146.412,1360.582,1153.608z"/>
	<path style="fill:#BFE3EF;" d="M610.823,1593.666c-7.44-7.659-19.152,4.063-11.713,11.717
		c65.282,67.191,162.894,83.678,247.079,43.011c9.598-4.633,1.203-18.923-8.361-14.304
		C760.304,1671.537,670.667,1655.259,610.823,1593.666z"/>
	<path style="fill:#3357A4;" d="M1048.84,827.974c-49.7,47.505-91.308,97.629-123.093,146.277
		c14.572-8.085,29.388-15.739,44.516-22.909c77.379-36.675,160.283-61.715,245.042-74.002c48.531-7.036,97.691-9.886,146.718-8.319
		c28.088,0.88,56.448,3.267,83.864,9.172c43.907-86.246,52.268-162.044,14.295-201.768
		C1393.527,606.688,1209.366,674.542,1048.84,827.974z"/>
	<path style="fill:#43959B;" d="M1551.763,285.945c-28.073,15.547-50.212,39.386-63.318,68.701
		c-4.317,9.652,9.954,18.088,14.304,8.361c12.039-26.93,31.537-48.448,57.374-62.755
		C1569.453,295.086,1561.102,280.771,1551.763,285.945z"/>
	<path style="fill:#43959B;" d="M1626.924,360.235c-30.114,13.732-52.326,39.199-62.782,70.488
		c-3.386,10.136,12.609,14.482,15.976,4.404c9.164-27.428,28.955-48.634,55.167-60.587
		C1644.976,370.123,1636.566,355.841,1626.924,360.235z"/>
	<path style="fill:#43959B;" d="M1899.168,631.816c-15.883,34.623-42.017,61.601-76.19,78.461
		c-9.564,4.719-1.18,19.011,8.361,14.304c36.409-17.961,65.203-47.496,82.133-84.401
		C1917.886,630.556,1903.611,622.128,1899.168,631.816z"/>
	<path style="fill:#43959B;" d="M1816.405,566.53c-14.353,28.548-35.518,51.859-62.777,68.584c-9.072,5.566-0.755,19.9,8.365,14.305
		c29.545-18.129,53.135-43.532,68.717-74.526C1835.484,565.392,1821.199,556.992,1816.405,566.53z"/>
	<path style="fill:#43959B;" d="M1721.521,461.049c-26.577,16.071-48.428,37.964-64.433,64.585
		c-5.51,9.162,8.809,17.498,14.304,8.363c14.578-24.246,34.28-44.005,58.494-58.641
		C1738.998,469.845,1730.681,455.514,1721.521,461.049z"/>
</g>
</svg>
