<?xml version="1.0" encoding="UTF-8" standalone="no"?>
<svg
   version="1.1"
   id="Layer_1"
   x="0px"
   y="0px"
   width="100%"
   viewBox="0 0 1024 1024"
   enable-background="new 0 0 1024 1024"
   xml:space="preserve"
   sodipodi:docname="logo-max.svg"
   inkscape:version="1.3.2 (091e20e, 2023-11-25)"
   xmlns:inkscape="http://www.inkscape.org/namespaces/inkscape"
   xmlns:sodipodi="http://sodipodi.sourceforge.net/DTD/sodipodi-0.dtd"
   xmlns="http://www.w3.org/2000/svg"
   xmlns:svg="http://www.w3.org/2000/svg"><defs
   id="defs79" /><sodipodi:namedview
   id="namedview79"
   pagecolor="#ffffff"
   bordercolor="#000000"
   borderopacity="0.25"
   inkscape:showpageshadow="2"
   inkscape:pageopacity="0.0"
   inkscape:pagecheckerboard="0"
   inkscape:deskcolor="#d1d1d1"
   inkscape:zoom="0.52324613"
   inkscape:cx="139.51369"
   inkscape:cy="507.40939"
   inkscape:window-width="1472"
   inkscape:window-height="854"
   inkscape:window-x="0"
   inkscape:window-y="25"
   inkscape:window-maximized="0"
   inkscape:current-layer="Layer_1" />






















<path
   fill="#03151a"
   opacity="1"
   stroke="none"
   d="m 974.36482,422.33898 c 0.24596,2.35411 0.49191,4.70815 0.87261,8.47022 1.28254,9.18241 2.43036,16.95698 3.57798,24.73149 0.38244,3.0949 0.76486,6.18983 1.25799,9.95 0.23058,21.77036 1.80093,42.99692 0.12108,63.95118 -2.35286,29.34141 -7.08367,58.48589 -10.91108,87.69919 -0.6052,4.61877 -1.80888,9.15567 -2.76261,14.44037 -6.47518,20.78161 -12.18325,41.14066 -19.51772,60.8683 -18.52956,49.83946 -45.34025,94.69811 -80.18782,134.43928 -8.51894,9.71523 -17.42811,19.07305 -26.40646,29.11363 -23.59437,24.62216 -49.21642,45.84788 -77.05521,64.31995 -51.35879,34.07858 -107.4707,55.56699 -167.437,67.55995 -30.07923,6.01578 -60.27642,8.52596 -90.83822,8.41796 -56.82645,-0.2006 -111.1881,-12.76024 -163.97075,-33.46829 -8.85312,-3.47333 -17.57288,-7.30157 -26.92138,-11.06917 -14.37126,-7.60224 -28.18126,-15.08958 -41.97275,-22.61263 -1.99933,-1.09052 -3.90904,-2.35205 -6.333,-3.81238 -12.38165,-8.41228 -24.74408,-15.94418 -36.07684,-24.84459 -12.25521,-9.62462 -23.54923,-20.52724 -35.76552,-31.14174 -5.07068,-4.59589 -9.82017,-8.74022 -14.17564,-13.27926 -25.61133,-26.69016 -49.52967,-54.78413 -68.8208,-87.39569 -0.63825,-0.89721 -0.91585,-1.38137 -1.77983,-2.65174 -6.24549,-11.00045 -12.012011,-21.15032 -17.778539,-31.30017 -0.760542,-2.16695 -1.520897,-4.33387 -2.847727,-7.52942 -6.318291,-14.08047 -12.070293,-27.13235 -17.822294,-40.18423 -5.774494,-20.1709 -11.548978,-40.34192 -17.569085,-61.15353 -1.024484,-4.396 -1.803518,-8.15131 -2.883177,-13.2141 -1.640412,-8.46159 -2.98021,-15.61581 -4.320183,-22.76991 -0.206174,-1.44837 -0.412533,-2.89682 -0.873485,-5.49829 -0.420652,-2.47276 -0.586526,-3.79244 -0.7524,-5.1122 -6.530873,-30.59003 -5.657737,-61.74146 -4.611295,-92.57952 1.317317,-38.81671 7.610009,-77.16319 18.980831,-115.14551 31.919082,-98.21589 88.033924,-178.03968 167.296034,-241.16368 30.11018,-23.97979 63.20353,-42.589517 97.51681,-59.358889 42.26369,-20.654981 87.08763,-31.471255 133.12233,-38.121689 1.70719,-0.24663 3.38963,-0.672201 5.77311,-1.143142 15.6232,-0.759602 30.5554,-1.875879 45.49141,-1.936803 62.50925,-0.254815 122.62499,11.64479 180.47089,36.307792 86.93473,37.065251 156.06686,96.252021 210.2265,174.361671 32.44904,46.79855 54.86863,98.40166 69.69722,154.31526 1.06027,3.79992 1.87356,6.95274 2.8792,11.4021 1.16389,6.24378 2.13561,11.19098 3.10734,16.13823 M 373.84258,371.83699 c 0,0 -0.045,-0.18031 0.9667,-1.09494 -2.07992,-3.02602 -4.15984,-6.05205 -6.87767,-10.24971 -5.15838,-0.14865 -10.31693,-0.29731 -17.00468,-0.94905 -4.76749,0 -9.53495,0 -15.11019,0 0.23195,4.33559 0.41409,7.73826 0.0259,12.62878 0.16431,4.23181 0.33054,8.46357 -0.0173,14.04478 0.16431,4.27096 0.33019,8.54187 -0.0173,14.21764 -0.10898,129.00468 -0.15221,258.00959 -0.5203,387.01357 -0.019,6.66274 3.08607,9.29031 7.74545,12.0744 87.70633,52.40802 179.88782,58.49534 276.12122,28.31802 0,-12.40395 0.0174,-24.44781 -0.0208,-36.49157 0,-1.40564 -0.28954,-2.81031 -0.48726,-4.60366 -1.46053,0.44229 -2.55039,0.69711 -3.5868,1.09689 -78.35316,30.22692 -155.48692,27.8725 -231.47699,-8.70322 -6.79431,-3.2703 -9.60691,-7.06488 -9.55901,-15.26162 0.34698,-59.19524 0.0589,-118.39416 -0.0225,-177.59197 -0.0622,-45.94605 -0.15914,-91.89224 -0.0346,-137.83786 0,-2.38684 1.96057,-4.76817 3.29675,-5.99177 1.00874,1.76023 1.90159,3.60359 3.04318,5.26867 41.46717,60.47391 82.95441,120.93346 124.45652,181.38225 1.71583,2.49908 3.60307,4.87529 5.77691,7.80179 45.44576,-66.9212 90.2294,-132.86713 135.01285,-198.81306 0.49002,0.28171 0.97985,0.56343 1.4697,0.84512 0,125.59614 0,251.19239 0,378.61811 10.36,-5.52148 19.49299,-10.97048 29.10284,-15.31987 7.20474,-3.26091 8.97506,-7.98002 8.95897,-15.75119 -0.28885,-139.27314 -0.26706,-278.54701 -0.31169,-417.82077 -8.6e-4,-2.83901 0,-5.67807 0,-9.10021 -7.25923,0 -13.64308,0.6308 -19.85621,-0.15306 -8.57136,-1.08142 -13.55919,2.43339 -18.29726,9.58657 -21.44664,32.37768 -43.53396,64.31138 -65.23954,96.51122 -16.14625,23.9526 -32.00901,48.10448 -48.10285,72.09425 -7.21115,10.74943 -14.67864,21.31937 -22.62058,32.82665 -2.84114,-3.8195 -4.64553,-6.05548 -6.25084,-8.43223 -25.99721,-38.49256 -51.94428,-77.02053 -78.01345,-115.46215 -1.43804,-2.12049 -3.84038,-3.55816 -6.7386,-5.8005 -0.35216,-0.0207 -0.70432,-0.0413 -0.0259,-1.10596 -2.34058,-4.009 -4.52497,-8.12398 -7.04873,-12.00882 -11.14163,-17.15088 -22.33829,-34.26514 -33.64822,-51.30028 -1.1895,-1.79146 -3.25523,-2.97552 -5.09162,-4.48527 m -185.06084,78.04903 c -0.5305,3.78998 -1.06998,7.5786 -1.58992,11.3701 -15.78441,115.12455 17.9228,213.14625 97.91326,295.03599 7.18953,7.36026 15.43208,13.64649 23.3197,20.54901 1.07481,-1.70899 1.62103,-2.17297 1.62156,-2.63749 0.0173,-12.07105 -0.33089,-24.15266 0.071,-36.20871 0.20134,-6.04655 -1.5112,-10.405 -5.65548,-14.7929 -46.26682,-48.98714 -75.11003,-106.89701 -82.21983,-174.85869 -9.83487,-94.0105 16.93343,-176.06818 83.00233,-242.62093 55.37801,-55.78335 123.73492,-82.32135 201.2888,-83.46119 128.53907,-1.88914 241.11364,79.47516 281.16388,202.11513 22.15806,67.85128 18.47542,134.60997 -7.67885,200.21699 -15.00813,37.64717 -36.43022,71.39057 -64.62774,100.40246 -2.09324,2.15355 -4.59555,5.1765 -4.68082,7.8689 -0.46026,14.55062 -0.21811,29.12442 -0.21811,46.63712 12.13135,-10.65397 23.07184,-18.80669 32.30963,-28.63119 36.42072,-38.73402 63.33499,-83.44391 79.30985,-134.86627 21.58327,-69.47606 23.9211,-139.01938 -1.1684,-207.92151 C 776.37796,285.70782 689.9834,211.39291 564.99864,189.23495 468.77267,172.1755 379.48475,195.46208 302.11853,258.77294 242.05139,307.92754 204.76897,371.49985 188.77804,449.88599 m 336.2335,-155.94318 c -31.16737,-11.91382 -56.30927,14.81517 -56.70328,37.26693 -0.37447,21.34096 15.41685,41.07394 35.82638,44.38636 20.66156,3.35332 40.92096,-10.0362 47.14221,-31.15714 5.91546,-20.08273 -4.37708,-40.6379 -26.26531,-50.49615 z"
   id="path23"
   style="fill:#87ceeb;fill-opacity:1;stroke-width:1.74846" />
























































</svg>
